<svg height="512" viewBox="0 0 64 64" width="512" xmlns="http://www.w3.org/2000/svg" xmlns:xlink="http://www.w3.org/1999/xlink"><linearGradient id="New_Gradient_Swatch_3" gradientUnits="userSpaceOnUse" x1="12" x2="12" y1="60.511" y2="5.473"><stop offset="0" stop-color="#006df0"/><stop offset="1" stop-color="#00e7f0"/></linearGradient><linearGradient id="New_Gradient_Swatch_3-3" x1="57" x2="57" xlink:href="#New_Gradient_Swatch_3" y1="60.511" y2="5.473"/><linearGradient id="New_Gradient_Swatch_3-4" x1="44" x2="44" xlink:href="#New_Gradient_Swatch_3" y1="60.511" y2="5.473"/><linearGradient id="New_Gradient_Swatch_3-5" x1="55" x2="55" xlink:href="#New_Gradient_Swatch_3" y1="60.511" y2="5.473"/><linearGradient id="New_Gradient_Swatch_3-6" x1="19.5" x2="19.5" xlink:href="#New_Gradient_Swatch_3" y1="60.511" y2="5.473"/><linearGradient id="New_Gradient_Swatch_3-7" x1="24.5" x2="24.5" xlink:href="#New_Gradient_Swatch_3" y1="60.511" y2="5.473"/><linearGradient id="New_Gradient_Swatch_3-8" x1="29.5" x2="29.5" xlink:href="#New_Gradient_Swatch_3" y1="60.511" y2="5.473"/><linearGradient id="New_Gradient_Swatch_3-9" x1="34.5" x2="34.5" xlink:href="#New_Gradient_Swatch_3" y1="60.511" y2="5.473"/><linearGradient id="New_Gradient_Swatch_3-10" x1="39.5" x2="39.5" xlink:href="#New_Gradient_Swatch_3" y1="60.511" y2="5.473"/><linearGradient id="New_Gradient_Swatch_3-11" x1="44.5" x2="44.5" xlink:href="#New_Gradient_Swatch_3" y1="60.511" y2="5.473"/><linearGradient id="New_Gradient_Swatch_3-12" x1="19.303" x2="19.303" xlink:href="#New_Gradient_Swatch_3" y1="60.511" y2="5.473"/><linearGradient id="New_Gradient_Swatch_3-13" x1="22.839" x2="22.839" xlink:href="#New_Gradient_Swatch_3" y1="60.511" y2="5.473"/><linearGradient id="New_Gradient_Swatch_3-14" x1="26.375" x2="26.375" xlink:href="#New_Gradient_Swatch_3" y1="60.511" y2="5.473"/><linearGradient id="New_Gradient_Swatch_3-15" x1="29.91" x2="29.91" xlink:href="#New_Gradient_Swatch_3" y1="60.511" y2="5.473"/><linearGradient id="New_Gradient_Swatch_3-16" x1="33.445" x2="33.445" xlink:href="#New_Gradient_Swatch_3" y1="60.511" y2="5.473"/><linearGradient id="New_Gradient_Swatch_3-17" x1="36.981" x2="36.981" xlink:href="#New_Gradient_Swatch_3" y1="60.511" y2="5.473"/><linearGradient id="New_Gradient_Swatch_3-18" x1="19.123" x2="19.123" xlink:href="#New_Gradient_Swatch_3" y1="60.511" y2="5.473"/><linearGradient id="New_Gradient_Swatch_3-19" x1="23.953" x2="23.953" xlink:href="#New_Gradient_Swatch_3" y1="60.511" y2="5.473"/><linearGradient id="New_Gradient_Swatch_3-20" x1="28.782" x2="28.782" xlink:href="#New_Gradient_Swatch_3" y1="60.511" y2="5.473"/><linearGradient id="New_Gradient_Swatch_3-21" x1="33.612" x2="33.612" xlink:href="#New_Gradient_Swatch_3" y1="60.511" y2="5.473"/><linearGradient id="New_Gradient_Swatch_3-22" x1="38.442" x2="38.442" xlink:href="#New_Gradient_Swatch_3" y1="60.511" y2="5.473"/><linearGradient id="New_Gradient_Swatch_3-23" x1="43.271" x2="43.271" xlink:href="#New_Gradient_Swatch_3" y1="60.511" y2="5.473"/><linearGradient id="New_Gradient_Swatch_3-24" x1="51" x2="51" xlink:href="#New_Gradient_Swatch_3" y1="60.511" y2="5.473"/><linearGradient id="New_Gradient_Swatch_3-26" x1="53" x2="53" xlink:href="#New_Gradient_Swatch_3" y1="60.511" y2="5.473"/><g id="hygiene-coronavirus-covid19-spray-clean"><path d="m17 31h-2v-2a1 1 0 0 0 -1-1h-4a1 1 0 0 0 -1 1v2h-2a1 1 0 0 0 -1 1v4a1 1 0 0 0 1 1h2v2a1 1 0 0 0 1 1h4a1 1 0 0 0 1-1v-2h2a1 1 0 0 0 1-1v-4a1 1 0 0 0 -1-1zm-1 4h-2a1 1 0 0 0 -1 1v2h-2v-2a1 1 0 0 0 -1-1h-2v-2h2a1 1 0 0 0 1-1v-2h2v2a1 1 0 0 0 1 1h2z" fill="url(#New_Gradient_Swatch_3)"/><path d="m19 18h-1v-3a3.01 3.01 0 0 0 -2-2.82v-9.18a1 1 0 0 0 -1-1h-6a1 1 0 0 0 -1 1v9.18a3.01 3.01 0 0 0 -2 2.82v3h-1a3.009 3.009 0 0 0 -3 3v38a3.009 3.009 0 0 0 3 3h14a3.009 3.009 0 0 0 3-3v-38a3.009 3.009 0 0 0 -3-3zm-9-14h4v8h-4zm-2 11a1 1 0 0 1 1-1h6a1 1 0 0 1 1 1v3h-8zm12 44a1 1 0 0 1 -1 1h-14a1 1 0 0 1 -1-1v-38a1 1 0 0 1 1-1h14a1 1 0 0 1 1 1z" fill="url(#New_Gradient_Swatch_3)"/><path d="m61 33h-1.18c-.04-.1-.08-.19-.12-.29l.84-.83a1 1 0 0 0 -1.42-1.42l-.83.84c-.1-.04-.19-.08-.29-.12v-1.18a1 1 0 0 0 -2 0v1.18c-.1.04-.19.08-.29.12l-.83-.84a1 1 0 0 0 -1.42 1.42l.84.83c-.04.1-.08.19-.12.29h-1.18a1 1 0 0 0 0 2h1.18c.04.1.08.19.12.29l-.84.83a1.008 1.008 0 0 0 0 1.42 1.042 1.042 0 0 0 .71.29 1.024 1.024 0 0 0 .71-.29l.83-.84c.1.04.19.08.29.12v1.18a1 1 0 0 0 2 0v-1.18c.1-.04.19-.08.29-.12l.83.84a1.024 1.024 0 0 0 .71.29 1.042 1.042 0 0 0 .71-.29 1.008 1.008 0 0 0 0-1.42l-.84-.83c.04-.1.08-.19.12-.29h1.18a1 1 0 0 0 0-2zm-4 2a1 1 0 1 1 1-1 1 1 0 0 1 -1 1z" fill="url(#New_Gradient_Swatch_3-3)"/><path d="m49 36h-1.14a4.166 4.166 0 0 0 -.43-1.02l.81-.81a1 1 0 0 0 -1.41-1.41l-.81.81a4.166 4.166 0 0 0 -1.02-.43v-1.14a1 1 0 0 0 -2 0v1.14a4.166 4.166 0 0 0 -1.02.43l-.81-.81a1 1 0 0 0 -1.41 1.41l.81.81a4.166 4.166 0 0 0 -.43 1.02h-1.14a1 1 0 0 0 0 2h1.14a4.166 4.166 0 0 0 .43 1.02l-.81.81a1 1 0 0 0 0 1.41.978.978 0 0 0 1.41 0l.81-.81a4.166 4.166 0 0 0 1.02.43v1.14a1 1 0 0 0 2 0v-1.14a4.166 4.166 0 0 0 1.02-.43l.81.81a.978.978 0 0 0 1.41 0 1 1 0 0 0 0-1.41l-.81-.81a4.166 4.166 0 0 0 .43-1.02h1.14a1 1 0 0 0 0-2zm-5 3a2 2 0 1 1 2-2 2.006 2.006 0 0 1 -2 2z" fill="url(#New_Gradient_Swatch_3-4)"/><path d="m61 17a1 1 0 0 0 -1 1h-1.14a4.166 4.166 0 0 0 -.43-1.02l.81-.81a1.014 1.014 0 0 0 1.42 0 1 1 0 0 0 0-1.41l-1.42-1.42a1 1 0 0 0 -1.41 0 1.008 1.008 0 0 0 0 1.42l-.81.81a4.166 4.166 0 0 0 -1.02-.43v-1.14a1 1 0 0 0 0-2h-2a1 1 0 0 0 0 2v1.14a4.166 4.166 0 0 0 -1.02.43l-.81-.81a1.008 1.008 0 0 0 0-1.42 1 1 0 0 0 -1.41 0l-1.42 1.42a1 1 0 0 0 0 1.41 1.014 1.014 0 0 0 1.42 0l.81.81a4.166 4.166 0 0 0 -.43 1.02h-1.14a1 1 0 0 0 -2 0v2a1 1 0 0 0 2 0h1.14a4.166 4.166 0 0 0 .43 1.02l-.81.81a1.008 1.008 0 0 0 -1.42 0 1 1 0 0 0 0 1.41l1.42 1.42a1 1 0 1 0 1.41-1.42l.81-.81a4.166 4.166 0 0 0 1.02.43v1.14a1 1 0 0 0 0 2h2a1 1 0 0 0 0-2v-1.14a4.166 4.166 0 0 0 1.02-.43l.81.81a1 1 0 0 0 1.41 1.42l1.42-1.42a1 1 0 0 0 0-1.41 1.008 1.008 0 0 0 -1.42 0l-.81-.81a4.166 4.166 0 0 0 .43-1.02h1.14a1 1 0 0 0 2 0v-2a1 1 0 0 0 -1-1zm-6 4a2 2 0 1 1 2-2 2.006 2.006 0 0 1 -2 2z" fill="url(#New_Gradient_Swatch_3-5)"/><path d="m19 6h1a1 1 0 0 0 0-2h-1a1 1 0 0 0 0 2z" fill="url(#New_Gradient_Swatch_3-6)"/><path d="m24 6h1a1 1 0 0 0 0-2h-1a1 1 0 0 0 0 2z" fill="url(#New_Gradient_Swatch_3-7)"/><path d="m29 6h1a1 1 0 0 0 0-2h-1a1 1 0 0 0 0 2z" fill="url(#New_Gradient_Swatch_3-8)"/><path d="m34 6h1a1 1 0 0 0 0-2h-1a1 1 0 0 0 0 2z" fill="url(#New_Gradient_Swatch_3-9)"/><path d="m39 6h1a1 1 0 0 0 0-2h-1a1 1 0 0 0 0 2z" fill="url(#New_Gradient_Swatch_3-10)"/><path d="m44 6h1a1 1 0 0 0 0-2h-1a1 1 0 0 0 0 2z" fill="url(#New_Gradient_Swatch_3-11)"/><path d="m19.657 11a1 1 0 0 0 -1.414 1.414l.707.707a1 1 0 1 0 1.414-1.414z" fill="url(#New_Gradient_Swatch_3-12)"/><path d="m23.192 14.536a1 1 0 1 0 -1.414 1.414l.707.707a1 1 0 0 0 1.415-1.414z" fill="url(#New_Gradient_Swatch_3-13)"/><path d="m26.728 18.071a1 1 0 1 0 -1.414 1.414l.707.707a1 1 0 1 0 1.414-1.414z" fill="url(#New_Gradient_Swatch_3-14)"/><path d="m30.263 21.606a1 1 0 0 0 -1.414 1.415l.708.707a1 1 0 0 0 1.414-1.414z" fill="url(#New_Gradient_Swatch_3-15)"/><path d="m33.8 25.142a1 1 0 0 0 -1.414 1.414l.707.707a1 1 0 0 0 1.414-1.414z" fill="url(#New_Gradient_Swatch_3-16)"/><path d="m38.042 29.385-.708-.707a1 1 0 1 0 -1.414 1.414l.707.707a1 1 0 1 0 1.415-1.414z" fill="url(#New_Gradient_Swatch_3-17)"/><path d="m18.381 9.1.966.258a.972.972 0 0 0 .259.035 1 1 0 0 0 .259-1.966l-.965-.255a1 1 0 0 0 -.519 1.928z" fill="url(#New_Gradient_Swatch_3-18)"/><path d="m25.4 9.949a1 1 0 0 0 -.707-1.224l-.965-.259a1 1 0 1 0 -.518 1.931l.966.259a.972.972 0 0 0 .259.035 1 1 0 0 0 .965-.742z" fill="url(#New_Gradient_Swatch_3-19)"/><path d="m29.266 11.985a1 1 0 0 0 .258-1.966l-.966-.259a1 1 0 1 0 -.517 1.931l.965.259a.974.974 0 0 0 .26.035z" fill="url(#New_Gradient_Swatch_3-20)"/><path d="m34.354 11.313-.966-.259a1 1 0 1 0 -.518 1.932l.966.259a1.015 1.015 0 0 0 .26.034 1 1 0 0 0 .258-1.966z" fill="url(#New_Gradient_Swatch_3-21)"/><path d="m37.7 14.28.966.259a1.013 1.013 0 0 0 .259.034 1 1 0 0 0 .259-1.966l-.967-.259a1 1 0 0 0 -.517 1.932z" fill="url(#New_Gradient_Swatch_3-22)"/><path d="m42.529 15.574.967.259a1 1 0 0 0 .517-1.932l-.966-.259a1 1 0 1 0 -.518 1.932z" fill="url(#New_Gradient_Swatch_3-23)"/><path d="m51 8a3 3 0 1 0 -3-3 3 3 0 0 0 3 3zm0-4a1 1 0 1 1 -1 1 1 1 0 0 1 1-1z" fill="url(#New_Gradient_Swatch_3-24)"/><path d="m41 25a3 3 0 1 0 3-3 3 3 0 0 0 -3 3zm4 0a1 1 0 1 1 -1-1 1 1 0 0 1 1 1z" fill="url(#New_Gradient_Swatch_3-4)"/><path d="m53 43a3 3 0 1 0 3 3 3 3 0 0 0 -3-3zm0 4a1 1 0 1 1 1-1 1 1 0 0 1 -1 1z" fill="url(#New_Gradient_Swatch_3-26)"/><g fill="url(#New_Gradient_Swatch_3)"><path d="m11 7h2v2h-2z"/><path d="m17 42h-10a1 1 0 0 0 0 2h10a1 1 0 0 0 0-2z"/><path d="m17 46h-10a1 1 0 0 0 0 2h10a1 1 0 0 0 0-2z"/><path d="m14 50h-4a1 1 0 0 0 0 2h4a1 1 0 0 0 0-2z"/></g></g></svg>