<?xml version="1.0" encoding="iso-8859-1"?>
<!-- Generator: Adobe Illustrator 19.0.0, SVG Export Plug-In . SVG Version: 6.00 Build 0)  -->
<svg version="1.1" id="Capa_1" xmlns="http://www.w3.org/2000/svg" xmlns:xlink="http://www.w3.org/1999/xlink" x="0px" y="0px"
	 viewBox="0 0 367.85 367.85" style="enable-background:new 0 0 367.85 367.85;" xml:space="preserve">
<path style="fill:#CCE4FF;" d="M183.93,7.85l128,160h-80v184c0,4.4-3.6,8-8,8h-80c-4.4,0-8-3.6-8-8v-184h-80L183.93,7.85z"/>
<path style="fill:#007AFF;" d="M55.93,175.85h72v176c0,8.824,7.176,16,16,16h80c8.824,0,16-7.176,16-16v-176h72
	c3.072,0,5.88-1.76,7.208-4.536c1.336-2.768,0.96-6.064-0.968-8.464l-128-160c-3.032-3.8-9.464-3.8-12.496,0l-128,160
	c-1.92,2.4-2.296,5.688-0.968,8.464C50.05,174.09,52.858,175.85,55.93,175.85z M183.93,20.658L295.282,159.85H231.93
	c-4.416,0-8,3.584-8,8v184h-80v-184c0-4.416-3.584-8-8-8H72.578L183.93,20.658z"/>
<g>
</g>
<g>
</g>
<g>
</g>
<g>
</g>
<g>
</g>
<g>
</g>
<g>
</g>
<g>
</g>
<g>
</g>
<g>
</g>
<g>
</g>
<g>
</g>
<g>
</g>
<g>
</g>
<g>
</g>
</svg>
