<svg id="Capa_1" enable-background="new 0 0 512 512" height="512" viewBox="0 0 512 512" width="512" xmlns="http://www.w3.org/2000/svg"><g><g><path d="m512 256c0 71.843-29.594 136.775-77.258 183.268l-357.759-.268c-47.502-46.475-76.983-111.295-76.983-183 0-141.385 114.615-256 256-256s256 114.615 256 256z" fill="#00ddc1"/></g><path d="m263.903 64.611-.585 374.528 171.424.129c47.664-46.493 77.258-111.425 77.258-183.268 0-2.088-.029-4.169-.666-5.857l-207.25-207.057z" fill="#00baa0"/><path d="m317.5 81.224c0-33.642-27.272-60.914-60.914-60.914s-60.914 27.272-60.914 60.914c0 33.642 27.272 60.914 60.914 60.914s60.914-27.272 60.914-60.914z" fill="#804111"/><path d="m351.583 152.631c0-52.466-42.531-94.997-94.997-94.997-52.465 0-94.997 42.531-94.997 94.997 0 52.466 42.531 94.997 94.997 94.997 52.465.001 94.997-42.531 94.997-94.997z" fill="#804111"/><path d="m317.5 81.224c0-33.642-27.272-60.914-60.914-60.914v121.828c33.642 0 60.914-27.272 60.914-60.914z" fill="#62320d"/><path d="m351.583 152.631c0-52.466-42.531-94.997-94.997-94.997v189.995c52.465 0 94.997-42.532 94.997-94.998z" fill="#62320d"/><path d="m256 313.495v198.505c69.416 0 132.367-27.642 178.481-72.502v-53.47l-72.534-72.534h-105.947z" fill="#d6e9f8"/><path d="m77.519 386.028v53.47c46.114 44.861 109.064 72.502 178.481 72.502v-198.505h-105.947z" fill="#eef4ff"/><path d="m256 419.549v-106.054h-67.097z" fill="#d6e9f8"/><path d="m256.063 419.648 66.366-106.153h-66.37z" fill="#b2d7f3"/><g><path d="m163.179 185.383h15.423v26.974h-15.423z" fill="#ffccbd"/><path d="m333.396 185.383h15.423v26.974h-15.423z" fill="#ffbda9"/></g><path d="m309.421 313.495-53.421 85.448-54.065-85.448v-45.423h107.486z" fill="#ffbda9"/><path d="m309.421 313.495-53.421 85.448v-130.871h53.421z" fill="#f9a58d"/><g><path d="m256 252.878 79.505-39.353v-81.864h-159.009v81.864z" fill="#ffccbd"/><path d="m256 252.878 79.505-39.353v-81.864h-79.505z" fill="#ffbda9"/></g><path d="" fill="none" stroke="#eef4ff" stroke-miterlimit="10" stroke-width="15.423"/><g fill="#2d2d2d"><circle cx="212.86" cy="186.659" r="8.226"/><circle cx="299.261" cy="186.659" r="8.226"/></g><path d="" fill="none" stroke="#eef4ff" stroke-miterlimit="10" stroke-width="15.423"/><path d="m176.534 215.926 14.301-1.379-14.341-40.83v39.808c0 .803.016 1.603.04 2.401z" fill="#d6e9f8"/><path d="m335.465 215.926-14.301-1.379 14.341-40.83v39.808c-.001.803-.017 1.603-.04 2.401z" fill="#b2d7f3"/><g><path d="m335.505 213.525v-.577l-79.505-10.393-79.505 10.393v.577c0 43.91 35.595 79.505 79.505 79.505 43.909 0 79.505-35.595 79.505-79.505z" fill="#eef4ff"/></g><path d="m335.505 213.525v-.577l-79.505-10.393v90.474c43.909.001 79.505-35.594 79.505-79.504z" fill="#d6e9f8"/><g><g><g><path d="m213.189 247.933h42.811v15.423h-42.811z" fill="#d6e9f8"/></g></g><g><path d="m256 247.933h42.812v15.423h-42.812z" fill="#b2d7f3"/></g></g><g><g><g><path d="m213.189 223.041h42.811v15.423h-42.811z" fill="#d6e9f8"/></g></g><g><path d="m256 223.041h42.812v15.423h-42.812z" fill="#b2d7f3"/></g></g><path d="m512 256c0 71.975-29.703 137.012-77.519 183.523-46.112 44.853-109.071 72.477-178.481 72.477-69.411 0-132.37-27.624-178.483-72.479-47.815-46.51-77.517-111.547-77.517-183.521 0-141.385 114.615-256 256-256s256 114.615 256 256z" fill="none"/><path d="m170.43 168.468 85.289-36.037v-10.001h-85.289z" fill="#804111"/><path d="m341.008 168.468-85.289-36.037v-10.001h85.289z" fill="#62320d"/><path d="m335.851 139.751h-159.01v-39.446l79.739-32.357 79.271 32.357z" fill="#eef4ff"/><path d="m335.851 139.751h-79.827l.556-71.803 79.271 32.357z" fill="#d6e9f8"/><g><path d="m283.513 98.857h-19.632v-19.633h-14.59v19.633h-19.633v14.589h19.633v19.633h14.59v-19.633h19.632z" fill="#ff6379"/><path d="m263.881 79.224h-7.295v53.855h7.295v-19.633h19.632v-14.589h-19.632z" fill="#ff1f3e"/></g><path d="m305.533 429.667h66.636v9.333h-66.636z" fill="#b2d7f3"/><path d="m140.112 429.667h66.636v9.333h-66.636z" fill="#d6e9f8"/></g></svg>